<?xml version="1.0" encoding="UTF-8"?>
<svg width="30px" height="30px" viewBox="0 0 30 30" version="1.1" xmlns="http://www.w3.org/2000/svg" xmlns:xlink="http://www.w3.org/1999/xlink">
    <!-- Generator: Sketch 54.1 (76490) - https://sketchapp.com -->
    <title>github</title>
    <desc>Created with Sketch.</desc>
    <g id="Page-1" stroke="none" stroke-width="1" fill="none" fill-rule="evenodd">
        <g id="A3" transform="translate(-315.000000, -419.000000)" fill="#303030" fill-rule="nonzero">
            <g id="github" transform="translate(315.000000, 419.000000)">
                <path d="M15,0 C6.7153125,0 0,6.7153125 0,15 C0,23.2846875 6.7153125,30 15,30 C23.2846875,30 30,23.2846875 30,15 C30,6.7153125 23.2846875,0 15,0 Z M23.908125,23.908125 C22.7503125,25.0659375 21.403125,25.974375 19.903125,26.6090625 C19.5225,26.7703125 19.1353125,26.911875 18.7425,27.03375 L18.7425,24.785625 C18.7425,23.604375 18.3375,22.734375 17.5265625,22.1784375 C18.0346875,22.1296875 18.500625,22.06125 18.9253125,21.973125 C19.35,21.885 19.7990625,21.7584375 20.2734375,21.5925 C20.7478125,21.4265625 21.1715625,21.22875 21.5475,20.9990625 C21.9234375,20.769375 22.284375,20.47125 22.63125,20.105625 C22.978125,19.74 23.26875,19.3246875 23.503125,18.860625 C23.7375,18.3965625 23.923125,17.8396875 24.06,17.1909375 C24.196875,16.5421875 24.2653125,15.8259375 24.2653125,15.045 C24.2653125,13.5309375 23.7721875,12.241875 22.7859375,11.1778125 C23.235,10.0059375 23.18625,8.731875 22.6396875,7.3546875 L22.273125,7.310625 C22.0190625,7.2815625 21.5625,7.3884375 20.9034375,7.633125 C20.244375,7.8778125 19.5046875,8.278125 18.684375,8.8340625 C17.521875,8.5115625 16.31625,8.3503125 15.0665625,8.3503125 C13.8065625,8.3503125 12.605625,8.5115625 11.4628125,8.8340625 C10.9453125,8.4825 10.455,8.191875 9.9909375,7.9621875 C9.526875,7.7325 9.155625,7.576875 8.8771875,7.4934375 C8.59875,7.41 8.34,7.359375 8.1009375,7.3396875 C7.861875,7.32 7.708125,7.3153125 7.6396875,7.3246875 C7.57125,7.3340625 7.5225,7.344375 7.4934375,7.35375 C6.946875,8.7403125 6.898125,10.0153125 7.3471875,11.176875 C6.3609375,12.2409375 5.8678125,13.53 5.8678125,15.0440625 C5.8678125,15.825 5.93625,16.5403125 6.073125,17.19 C6.21,17.8396875 6.395625,18.395625 6.63,18.8596875 C6.864375,19.32375 7.155,19.7390625 7.501875,20.1046875 C7.84875,20.4703125 8.2096875,20.7684375 8.585625,20.998125 C8.9615625,21.2278125 9.38625,21.425625 9.8596875,21.5915625 C10.333125,21.7575 10.7821875,21.885 11.2078125,21.9721875 C11.6334375,22.059375 12.0984375,22.12875 12.6065625,22.1775 C11.8059375,22.7240625 11.405625,23.593125 11.405625,24.7846875 L11.405625,27.076875 C10.963125,26.945625 10.5271875,26.79 10.09875,26.608125 C8.59875,25.9734375 7.2515625,25.065 6.09375,23.9071875 C4.9359375,22.749375 4.0275,21.4021875 3.3928125,19.9021875 C2.7365625,18.350625 2.40375,16.7015625 2.40375,14.9990625 C2.40375,13.2965625 2.7365625,11.6475 3.3928125,10.0959375 C4.0275,8.5959375 4.9359375,7.24875 6.09375,6.0909375 C7.2515625,4.933125 8.59875,4.0246875 10.09875,3.39 C11.6503125,2.73375 13.3003125,2.4009375 15.001875,2.4009375 C16.7034375,2.4009375 18.3534375,2.73375 19.905,3.39 C21.405,4.0246875 22.7521875,4.933125 23.91,6.0909375 C25.0678125,7.24875 25.97625,8.5959375 26.6109375,10.0959375 C27.2671875,11.6475 27.6,13.2975 27.6,14.9990625 C27.6,16.700625 27.2671875,18.350625 26.6109375,19.9021875 C25.97625,21.4021875 25.0678125,22.749375 23.91,23.9071875 L23.908125,23.908125 Z" id="Shape"></path>
            </g>
        </g>
    </g>
</svg>